# xmcd
#
# Track frame offsets:
#	150
#	10656
#	23802
#	33608
#	43840
#	56062
#	67353
#	80341
#	93729
#	105362
#	116660
#	128874
#	141884
#	155904
#	168299
#	180096
#	190613
#	200981
#
# Disc length: 2849 seconds
#
# Revision: 0
# Processed by: cddbd v1.5.2PL0 Copyright (c) Steve Scherf et al.
# Submitted via: EasyCDDAExtractor 16.0.6.1
#
DISCID=fd0b1f12
DTITLE=Various Artist - Prime Time Oldies, Vol. 6
DYEAR=2016
DGENRE=Oldies
TTITLE0=The Vestelles - Come Home
TTITLE1=Gee Gee and The Upnilons - You Don't Have To
TTITLE2=The Charlettes - Hey Baby
TTITLE3=Norma Rudd - Something Keeps Telling Me
TTITLE4=Wanda Davis - Take Care
TTITLE5=Ruby Stackhouse - Wishing
TTITLE6=The Soulettes - Find Somebody New
TTITLE7=The Dorells - Maybe Baby
TTITLE8=Sharon McMahan - Love Is Wonderful
TTITLE9=The Darlings - Two Timer Loser
TTITLE10=The Tiaras - Where Does All The Time Go
TTITLE11=The Ultimates - Just Because You've Gone And Left Me
TTITLE12=The Witches and The Warlock - He Was A Sweet Thing
TTITLE13=Little Ann - Deep Shadows
TTITLE14=Judy McDonald and The Mellowettes - There's Nothing I'd Rather Do
TTITLE15=The Sharp-etts - Keep Looking (And I Guess I'll Never Find Him)
TTITLE16=The Fashions - Dearest One
TTITLE17=Rose St. John and The Wonderettes - Fool Don't Laugh
EXTD=
EXTT0=
EXTT1=
EXTT2=
EXTT3=
EXTT4=
EXTT5=
EXTT6=
EXTT7=
EXTT8=
EXTT9=
EXTT10=
EXTT11=
EXTT12=
EXTT13=
EXTT14=
EXTT15=
EXTT16=
EXTT17=
PLAYORDER=
